<?xml version="1.0" encoding="UTF-8"?>
<svg id="Layer_1" data-name="Layer 1" xmlns="http://www.w3.org/2000/svg" viewBox="0 0 318.77 306.75">
  <defs>
    <style>
      .cls-1 {
        fill: red;
      }

      .cls-1, .cls-2, .cls-3 {
        stroke-width: 0px;
      }

      .cls-2 {
        fill: #fe0000;
      }

      .cls-3 {
        fill: #1d1d1b;
      }
    </style>
  </defs>
  <path class="cls-1" d="m111.06,176.69c-27.74,0-50.23-22.49-50.23-50.23s22.49-50.23,50.23-50.23c9.67,0,18.7,2.74,26.37,7.48-14.56-14.68-34.74-23.77-57.05-23.77C35.98,59.93,0,95.91,0,140.3s35.98,80.37,80.37,80.37,80.37-35.98,80.37-80.37c0-1.79-.08-3.55-.19-5.31-4.06,23.67-24.66,41.7-49.49,41.7Z"/>
  <path class="cls-2" d="m238.13,61.02c-39.82,0-72.87,28.87-79.44,66.81,8.44-16.12,25.64-27.16,45.5-27.16,28.19,0,51.04,22.25,51.04,49.69s-22.85,49.69-51.04,49.69c-11.39,0-21.91-3.64-30.41-9.78,14.72,19.46,38.06,32.04,64.35,32.04,44.54,0,80.64-36.1,80.64-80.64s-36.1-80.64-80.64-80.64Z"/>
  <polygon class="cls-3" points="118.09 52.09 142.65 29.86 134.68 0 157.74 18.91 181.63 1.16 172.67 30.86 194.24 51.93 166.04 52.09 157.41 85.77 148.95 52.26 118.09 52.09"/>
  <path class="cls-3" d="m65.44,274.71l9.78,32.04,92.86-39.64,71.95,37.47,10.86-31.23s-87.43-49.42-185.45,1.36Z"/>
  <path class="cls-3" d="m60.28,250.54l4.07,14.93c92.46-44.8,188.03-2.01,188.03-2.11,0-.15,3.94-13.63,3.94-13.63,0,0-97.21-46.43-196.04.81Z"/>
</svg>