<?xml version="1.0" encoding="utf-8"?>
<!-- Generator: Adobe Illustrator 27.9.0, SVG Export Plug-In . SVG Version: 6.00 Build 0)  -->
<svg version="1.1" id="Layer_1" xmlns="http://www.w3.org/2000/svg" xmlns:xlink="http://www.w3.org/1999/xlink" x="0px" y="0px"
	 viewBox="0 0 80 80" style="enable-background:new 0 0 80 80;" xml:space="preserve">
<style type="text/css">
	.st0{fill:#E62F35;}
</style>
<path class="st0" d="M28.6,11.8c-0.4,0.9-0.6,1.8-0.5,2.8c-0.1,1,0.7,1.8,1.7,1.9c0.5,0,0.9-0.2,1.3-0.4c0.6-0.4,1.1-1,1.2-1.8
	c0.1-0.4-0.1-0.9-0.5-1.2C30.8,12.4,29.7,12,28.6,11.8 M51.4,12c-0.9,0.3-1.7,0.9-2.3,1.6c-0.5,0.5-0.7,1.2-0.5,1.9
	c0.3,0.7,0.9,1.1,1.6,1.3c0.2,0.1,0.4,0.1,0.7,0.1c0.6,0,1.1-0.2,1.5-0.6c0.2-0.3,0.4-0.6,0.3-1C52.4,14.1,52,13,51.4,12 M12.3,27.8
	c0.3,0.9,0.9,1.7,1.6,2.3c0.4,0.4,0.9,0.6,1.4,0.6c0.8,0,1.5-0.6,1.7-1.7c0.2-0.7,0.1-1.4-0.4-2c-0.3-0.4-0.7-0.6-1.2-0.6
	C14.3,26.7,13.2,27.1,12.3,27.8 M64.8,27.9h-0.3c-0.7,0-1.3,0.4-1.7,1c-0.3,0.7-0.2,1.4,0.3,2c0.4,0.7,1.1,1.1,1.9,1.2
	c0.4,0,0.8-0.2,1-0.5c0.7-1,1.1-2,1.3-3.2C66.4,28.1,65.6,27.9,64.8,27.9 M12,50.7c0.8,0.3,1.6,0.5,2.4,0.5h0.3c0.7,0,1.4-0.4,1.7-1
	c0.3-0.7,0.2-1.4-0.3-2c-0.4-0.7-1.1-1.1-1.9-1.2c-0.4,0-0.8,0.2-1,0.5C12.7,48.5,12.2,49.6,12,50.7 M64,48.4
	c-0.8,0-1.4,0.6-1.7,1.7c-0.2,0.7-0.1,1.4,0.3,2c0.3,0.4,0.7,0.6,1.2,0.5c1.1-0.2,2.2-0.7,3.2-1.3c-0.3-0.9-0.9-1.7-1.6-2.3
	C65.1,48.6,64.6,48.4,64,48.4 M28.5,62.2c-0.6,0-1.1,0.2-1.5,0.6c-0.2,0.3-0.4,0.6-0.3,1c0.2,1.1,0.7,2.2,1.3,3.2
	c0.9-0.3,1.7-0.9,2.3-1.6c0.7-0.7,0.8-1.8,0.1-2.6c-0.3-0.3-0.7-0.6-1.2-0.6C29,62.3,28.7,62.2,28.5,62.2 M49.6,62.7
	c-0.5,0-0.9,0.2-1.3,0.4c-0.6,0.4-1.1,1-1.2,1.8c0,0.4,0.1,0.9,0.5,1.2c0.9,0.7,2,1.1,3.2,1.3c0.4-0.9,0.6-1.8,0.5-2.8
	C51.3,63.6,50.6,62.7,49.6,62.7 M28.6,68c1.2,1.7,2.5,3.2,4.1,4.5c1.1,0.8,2.2,1.4,3.4,2c1.3,0.6,2.6,1.4,3.6,2.4
	c1.4-1.5,3-2.6,4.8-3.4c0.6-0.3,1.1-0.6,1.6-0.9c1.7-1.1,3.1-2.5,4.1-4.3c-1.2-0.3-2.4-0.8-3.4-1.5c-0.6-0.5-1-1.3-0.9-2.1
	c0.1-1.1,0.8-2.1,1.7-2.7c0.6-0.4,1.2-0.6,1.9-0.6c1.6,0,2.9,1.4,2.9,3c0.1,1.1-0.1,2.1-0.5,3.1c1.4,0.2,2.8,0.4,4.2,0.4
	c0.6,0,1.3,0,1.9-0.1c1.3-0.2,2.6-0.6,3.9-1c1.2-0.5,2.5-0.8,3.9-0.8h0.4c-0.1-2,0.3-4,1-5.9c0.2-0.6,0.4-1.2,0.5-1.7
	c0.5-2,0.4-4-0.2-6c-1,0.7-2.2,1.2-3.4,1.4h-0.3c-0.8,0-1.5-0.4-2-1c-0.6-0.9-0.8-2-0.6-3c0.2-1.4,1.4-2.5,2.9-2.6
	c0.8,0,1.6,0.3,2.2,0.9c0.8,0.7,1.4,1.6,1.8,2.6c1.7-1.2,3.2-2.6,4.5-4.1c0.8-1.1,1.4-2.2,2-3.4c0.6-1.3,1.4-2.6,2.4-3.6
	c-1.4-1.4-2.6-3-3.4-4.8c-0.3-0.6-0.6-1.1-0.9-1.6c-1-1.7-2.5-3.1-4.3-4.1c-0.2,1.2-0.8,2.4-1.5,3.4c-0.5,0.6-1.2,0.9-2,0.9
	c-1.2,0-2.3-0.7-2.9-1.8c-1-1.3-0.7-3.2,0.6-4.2c0.5-0.4,1.1-0.6,1.8-0.6h0.4c0.9,0,1.8,0.2,2.7,0.5c0.4-2,0.4-4.1,0.2-6.1
	c-0.2-1.3-0.6-2.6-1-3.9c-0.5-1.4-0.8-2.8-0.8-4.3c-0.3,0-0.5,0-0.8,0c-1.7-0.1-3.4-0.4-5-1c-0.6-0.2-1.2-0.4-1.7-0.5
	c-0.9-0.2-1.7-0.3-2.6-0.3c-1.1,0-2.2,0.2-3.3,0.5c0.7,1,1.2,2.2,1.4,3.5c0.1,0.7-0.2,1.4-0.6,1.9c-0.6,0.7-1.5,1-2.4,1
	c-0.3,0-0.6,0-0.9-0.1c-1.1-0.2-2-0.9-2.4-2c-0.3-1.1,0-2.2,0.7-3c0.7-0.8,1.6-1.4,2.6-1.8c-1.2-1.7-2.6-3.2-4.1-4.5
	c-1.1-0.8-2.2-1.4-3.4-2c-1.3-0.6-2.6-1.4-3.6-2.5c-1.4,1.5-3,2.6-4.8,3.5c-0.6,0.3-1.1,0.6-1.6,0.9C31.4,7.5,29.9,9,29,10.7
	c1.2,0.3,2.4,0.8,3.4,1.5c0.6,0.5,1,1.3,0.9,2.2c-0.1,1.1-0.8,2.1-1.7,2.7c-0.6,0.4-1.2,0.6-1.9,0.6c-1.6,0-2.9-1.4-2.9-3
	c0-1.1,0.1-2.1,0.5-3.1c-1.4-0.2-2.8-0.4-4.2-0.4c-0.6,0-1.3,0-1.9,0.1c-1.3,0.2-2.6,0.6-3.9,1c-1.2,0.5-2.5,0.8-3.9,0.8h-0.4
	c0.1,2-0.3,4-1,5.9c-0.2,0.6-0.4,1.2-0.5,1.7c-0.5,2-0.4,4,0.2,6c1-0.7,2.2-1.2,3.4-1.4c0.9-0.1,1.7,0.3,2.2,1c0.6,0.9,0.8,2,0.6,3
	c-0.2,1.4-1.4,2.5-2.9,2.6c-0.8,0-1.6-0.3-2.2-0.9c-0.8-0.7-1.4-1.6-1.8-2.6c-1.7,1.2-3.2,2.6-4.5,4.1c-0.8,1.1-1.4,2.2-2,3.4
	c-0.6,1.3-1.4,2.6-2.4,3.6c1.4,1.4,2.6,3,3.4,4.8c0.3,0.6,0.6,1.1,0.9,1.6c1.1,1.7,2.5,3.1,4.3,4.1c0.2-1.2,0.8-2.4,1.5-3.4
	c0.5-0.6,1.2-0.9,1.9-0.9c1.2,0,2.3,0.7,2.9,1.8c0.7,0.9,0.8,2.1,0.3,3.2c-0.5,1-1.6,1.6-2.7,1.6c-1,0-2.1-0.1-3.1-0.5
	c-0.4,2-0.5,4.1-0.2,6.1c0.2,1.3,0.6,2.6,1,3.9c0.5,1.4,0.8,2.8,0.8,4.3c0.3,0,0.5,0,0.8,0c1.7,0.1,3.4,0.4,5,1
	c0.6,0.2,1.2,0.4,1.7,0.5c0.9,0.2,1.7,0.3,2.6,0.3c1.1,0,2.2-0.2,3.3-0.5c-0.7-1-1.1-2.2-1.4-3.5c-0.1-0.7,0.2-1.4,0.6-1.9
	c0.6-0.7,1.5-1,2.4-1c0.3,0,0.6,0,0.9,0.1c1.6,0.2,2.8,1.8,2.5,3.4c-0.1,0.6-0.4,1.2-0.8,1.7c-0.7,0.8-1.6,1.4-2.6,1.8 M39.7,78.6
	L39.7,78.6c-0.2,0-0.4-0.1-0.5-0.3c-0.7-1.2-2-1.9-3.6-2.7c-1.3-0.6-2.5-1.3-3.6-2.1c-1.7-1.4-3.3-3.1-4.6-5c-1.3,0.4-2.6,0.6-4,0.6
	c-1,0-2-0.1-2.9-0.4c-0.6-0.1-1.2-0.3-1.8-0.5c-1.5-0.6-3.1-0.9-4.7-1c-0.5,0-0.9,0-1.4,0.1c-0.2,0-0.4,0-0.6-0.2
	c-0.1-0.1-0.2-0.4-0.1-0.6c0.3-1.3-0.1-2.8-0.7-4.5c-0.4-1.3-0.8-2.7-1-4.1c-0.2-2.3-0.1-4.6,0.3-6.8c-2.1-1.1-3.8-2.7-5-4.7
	C5.3,46.1,5,45.6,4.7,45c-0.9-1.8-2-3.8-3.7-4.9c-0.2-0.1-0.3-0.3-0.3-0.5c0-0.2,0.1-0.4,0.3-0.5c1.2-0.7,1.9-2,2.7-3.6
	c0.6-1.3,1.3-2.5,2.1-3.6c1.4-1.8,3.1-3.3,5-4.6c-0.7-2.2-0.8-4.6-0.3-6.9c0.1-0.6,0.3-1.2,0.5-1.8c0.6-1.9,1.2-4.1,0.8-6.1
	c0-0.2,0-0.4,0.2-0.5c0.1-0.1,0.4-0.2,0.6-0.1c0.3,0.1,0.7,0.1,1,0.1c1.2-0.1,2.4-0.4,3.5-0.8c1.3-0.4,2.6-0.8,4-1
	c0.7-0.1,1.4-0.1,2.1-0.1c1.6,0,3.1,0.2,4.7,0.4c1.1-2.1,2.7-3.8,4.7-5.1c0.5-0.3,1-0.6,1.6-0.9c1.8-0.9,3.7-2,4.9-3.7
	c0.1-0.2,0.3-0.3,0.5-0.3c0.2,0,0.4,0.1,0.5,0.3c0.7,1.2,2,1.9,3.6,2.7c1.2,0.6,2.4,1.3,3.6,2.1c1.8,1.4,3.3,3.1,4.6,5
	c1.3-0.4,2.6-0.6,4-0.6c1,0,2,0.1,2.9,0.4c0.6,0.1,1.2,0.3,1.8,0.5c1.5,0.6,3.1,0.9,4.7,1c0.5,0,0.9,0,1.4-0.1c0.2,0,0.4,0,0.6,0.2
	c0.1,0.2,0.2,0.4,0.1,0.6c-0.3,1.3,0.1,2.8,0.7,4.5c0.4,1.3,0.8,2.7,1,4c0.2,2.3,0.1,4.6-0.3,6.8c2.1,1.1,3.8,2.7,5.1,4.7
	c0.3,0.5,0.6,1.1,0.9,1.6c0.9,1.8,2,3.8,3.7,4.9c0.2,0.1,0.3,0.3,0.3,0.5c0,0.2-0.1,0.4-0.3,0.5c-1.1,0.7-1.9,2-2.7,3.6
	c-0.6,1.3-1.3,2.5-2.1,3.6c-1.4,1.8-3.1,3.3-5,4.6c0.7,2.2,0.8,4.6,0.3,6.9c-0.1,0.6-0.3,1.2-0.5,1.8c-0.6,1.9-1.2,4.1-0.8,6.1
	c0.1,0.3-0.1,0.6-0.4,0.7c-0.1,0-0.2,0-0.3,0c-0.3-0.1-0.7-0.1-1-0.1c-1.2,0.1-2.4,0.4-3.5,0.8c-1.3,0.4-2.6,0.8-4,1
	c-0.7,0.1-1.3,0.1-2,0.1c-1.6,0-3.1-0.2-4.7-0.4c-1.1,2.1-2.7,3.9-4.7,5.1c-0.5,0.3-1.1,0.6-1.6,0.9c-1.8,0.9-3.7,2-4.9,3.7
	c-0.1,0.2-0.3,0.3-0.5,0.3"/>
<path class="st0" d="M54,28.2c0.6,0,0.7,1,0.7,2.3s-0.2,2.3-0.7,2.3s-0.8-0.8-0.8-2.3S53.5,28.2,54,28.2 M54,26.9
	c-1.5,0-2.3,1.7-2.3,3.6S52.4,34,54,34c1.2,0,2.3-1.1,2.3-3.6C56.3,28.8,55.7,26.9,54,26.9 M48.3,34l6.2-11.8h-1.2L47,34H48.3z
	 M47.6,23.4c0.6,0,0.7,1,0.7,2.3S48.1,28,47.6,28s-0.8-0.8-0.8-2.3S47.1,23.4,47.6,23.4 M47.6,22.2c-1.5,0-2.3,1.7-2.3,3.6
	s0.7,3.5,2.3,3.5c1.2,0,2.3-1.1,2.3-3.6C49.9,24.1,49.3,22.2,47.6,22.2 M41.2,24.2c0.7,0,1,1.5,1,3.9c0,2.6-0.2,3.9-1,3.9
	s-1.1-1.2-1.1-3.9S40.5,24.2,41.2,24.2 M41.2,22.2c-2.4,0-3.5,2.6-3.5,6c0,3,0.9,5.9,3.4,5.9c1.9,0,3.4-1.8,3.4-6
	C44.5,25.3,43.9,22.2,41.2,22.2 M33.6,24.2c0.7,0,1,1.5,1,3.9c0,2.6-0.2,3.9-1,3.9s-1.1-1.2-1.1-3.9S32.8,24.2,33.6,24.2 M33.6,22.2
	c-2.4,0-3.5,2.6-3.5,6c0,3,0.9,5.9,3.4,5.9c1.9,0,3.4-1.8,3.4-6C36.9,25.3,36.3,22.2,33.6,22.2 M25.3,33.9h2.4V22.3h-2l-2.6,1.4
	l0.4,1.8l2-1l0,0L25.3,33.9z M53.9,28.2c0.6,0,0.7,1,0.7,2.3s-0.2,2.3-0.7,2.3s-0.8-0.8-0.8-2.3S53.4,28.2,53.9,28.2 M53.9,26.9
	c-1.5,0-2.3,1.7-2.3,3.6s0.7,3.5,2.3,3.5c1.2,0,2.3-1.1,2.3-3.6C56.2,28.8,55.6,26.9,53.9,26.9 M48.2,34l6.2-11.8h-1.2L46.9,34H48.2
	z M47.5,23.4c0.6,0,0.7,1,0.7,2.3S48,28,47.5,28s-0.8-0.8-0.8-2.3S47,23.4,47.5,23.4 M47.5,22.2c-1.5,0-2.3,1.7-2.3,3.6
	s0.7,3.5,2.3,3.5c1.2,0,2.3-1.1,2.3-3.6C49.8,24.1,49.2,22.2,47.5,22.2 M41.1,24.2c0.7,0,1,1.5,1,3.9c0,2.6-0.2,3.9-1,3.9
	S40,30.8,40,28.1S40.4,24.2,41.1,24.2 M41.1,22.2c-2.4,0-3.5,2.6-3.5,6c0,3,0.9,5.9,3.4,5.9c1.9,0,3.4-1.8,3.4-6
	C44.4,25.3,43.8,22.2,41.1,22.2 M33.5,24.2c0.7,0,1,1.5,1,3.9c0,2.6-0.2,3.9-1,3.9s-1.1-1.2-1.1-3.9S32.8,24.2,33.5,24.2 M33.5,22.2
	c-2.4,0-3.5,2.6-3.5,6c0,3,0.9,5.9,3.4,5.9c1.9,0,3.4-1.8,3.4-6C36.8,25.3,36.2,22.2,33.5,22.2 M25.2,33.9h2.5V22.3h-2l-2.6,1.4
	l0.4,1.8l2-1l0,0L25.2,33.9z"/>
<path class="st0" d="M54.1,55.4v-2.7l1.5-3.7h-0.8l-0.5,1.6c-0.2,0.5-0.3,1-0.5,1.5l0,0c-0.1-0.5-0.3-1-0.5-1.5L52.7,49h-0.8
	l1.4,3.7v2.7L54.1,55.4z M49.2,54.7c-0.2,0.1-0.4,0.1-0.7,0.1c-0.8,0-1.5-0.6-1.5-2.6s0.8-2.6,1.5-2.6c0.2,0,0.4,0,0.6,0.1l0.2-0.6
	c-0.2-0.1-0.5-0.2-0.8-0.2c-1,0-2.3,0.8-2.3,3.4c0,2.2,0.9,3.2,2.2,3.2c0.3,0,0.6,0,0.9-0.2L49.2,54.7z M42.4,55.4h0.7V49h-0.7V55.4
	z M36.9,55.4h2.5v-0.6h-1.8V49H37L36.9,55.4z M32,49.5c0.8,0,1,1.4,1,2.6s-0.2,2.7-1,2.7c-0.8,0-1.1-1.3-1.1-2.6S31.2,49.5,32,49.5
	 M32.1,48.9c-1.1,0-1.9,1.2-1.9,3.3s0.7,3.3,1.8,3.3c1.1,0,1.9-0.9,1.9-3.3C33.8,50.1,33.2,48.9,32.1,48.9 M25.2,49.6
	c0.1,0,0.3-0.1,0.4,0c0.8,0,1.1,0.6,1.1,1.2c0,0.9-0.5,1.4-1.2,1.4c-0.1,0-0.2,0-0.3,0V49.6z M24.5,55.4h0.7v-2.6h0.3
	c0.6,0,1.1-0.3,1.5-0.7c0.3-0.4,0.4-0.8,0.4-1.3c0-0.5-0.1-1-0.5-1.3c-0.4-0.3-0.9-0.5-1.4-0.5c-0.4,0-0.7,0-1.1,0.1L24.5,55.4z"/>
<path class="st0" d="M59.2,45.2v-2c0-1.8-0.1-3.2-0.1-4.1l0,0c0.3,0.9,0.6,1.8,0.9,2.7l1.4,3.4h1.6v-9h-1.5v2c0,1.6,0.1,3.2,0.2,4.1
	l0,0c-0.3-0.8-0.7-1.9-1-2.6l-1.4-3.5h-1.5v9L59.2,45.2z M53.7,37.6c0.8,0,1,1.4,1,3c0,1.8-0.3,3.1-1,3.1s-1.1-1-1.1-3.1
	S53,37.6,53.7,37.6 M53.7,36.1c-2,0-2.9,2.1-2.9,4.6s0.8,4.6,2.8,4.6c1.7,0,2.9-1.4,2.9-4.8C56.5,38.6,55.9,36.1,53.7,36.1
	 M47.9,45.2h1.8v-9h-1.8L47.9,45.2z M43.7,45.2h1.8v-7.4H47v-1.6h-4.9v1.6h1.6L43.7,45.2z M38.9,41.8l0.3-1.9c0.1-0.5,0.2-1.5,0.3-2
	l0,0c0.1,0.6,0.2,1.5,0.3,2l0.3,1.9L38.9,41.8z M40.3,43.2l0.4,2h1.7l-1.7-9h-2.1l-1.9,9h1.7l0.4-2H40.3z M31.9,45.2v-2
	c0-1.8-0.1-3.2-0.1-4.1l0,0c0.2,0.9,0.5,1.8,0.9,2.7l1.4,3.4h1.6v-9h-1.5v2c0,1.6,0.1,3.2,0.2,4.1l0,0c-0.3-0.8-0.7-1.9-1-2.6
	l-1.4-3.5h-1.6v9L31.9,45.2z M26.4,37.6c0.8,0,1,1.4,1,3c0,1.8-0.3,3.1-1,3.1s-1.1-1-1.1-3.1S25.7,37.7,26.4,37.6 M26.5,36.1
	c-2,0-3,2.1-3,4.6s0.8,4.6,2.8,4.6c1.7,0,2.9-1.4,2.9-4.8C29.2,38.6,28.6,36.1,26.5,36.1 M19.1,37.6c0.1,0,0.2,0,0.4,0
	c1,0,1.5,1.1,1.5,3c0,2.5-0.7,3.3-1.6,3.3c-0.1,0-0.2,0-0.3,0V37.6z M17.4,45.2c0.5,0.1,1,0.1,1.4,0.1c1,0.1,2-0.2,2.8-0.9
	c0.9-1,1.4-2.4,1.2-3.8c0.2-1.3-0.3-2.7-1.1-3.7c-0.7-0.6-1.6-0.9-2.5-0.8c-0.6,0-1.2,0-1.8,0.2L17.4,45.2z"/>
</svg>
